<svg xmlns="http://www.w3.org/2000/svg" width="24" height="24" viewBox="0 0 24 24" fill="none">
<path d="M10.4444 13.6366C12.2357 15.4278 15.8393 15.427 18.0373 13.229C18.2977 12.9687 19.1559 12.1104 19.3707 11.8956C21.58 9.68634 21.7625 6.28687 19.7783 4.30271C18.0685 2.59292 15.3078 2.49192 13.1633 3.9103C12.8191 4.1379 12.4909 4.40472 12.1854 4.71025" stroke="#000" stroke-width="2" stroke-linecap="round" stroke-linejoin="round"/>
<path d="M13.556 10.5253C11.7648 8.73409 8.16112 8.73485 5.96308 10.9329C5.70274 11.1932 4.8445 12.0515 4.62974 12.2662C2.42042 14.4756 2.23798 17.875 4.22217 19.8592C5.93196 21.569 8.69263 21.67 10.8371 20.2516C11.1813 20.0239 11.5096 19.7571 11.8151 19.4516" stroke="#000" stroke-width="2" stroke-linecap="round" stroke-linejoin="round"/>
</svg>